<?xml version="1.0" encoding="UTF-8"?>
<svg width="24px" height="24px" viewBox="0 0 24 24" version="1.1" xmlns="http://www.w3.org/2000/svg">
  <path d="M13,3 C9.23,3 6.19,5.95 6,9.66 L4.08,12.19 C3.84,12.5 4.08,13 4.5,13 L6,13 L6,15 C6,15.55 6.45,16 7,16 L9,16 L9,18 C9,18.55 9.45,19 10,19 L11,19 L11,21 C11,21.55 11.45,22 12,22 L16,22 C16.55,22 17,21.55 17,21 L17,16.5 C17,14.17 18.17,12.1 20.07,11.25 C20.37,11.12 20.6,10.85 20.66,10.53 C20.84,9.62 20.1,9 19.37,9 L15,9 C15,7.9 15.9,7 17,7 L19,7 C19.55,7 20,6.55 20,6 L20,5 C20,4.45 19.55,4 19,4 L15.5,4 C14.4,4 13.44,4.39 12.69,5.05 C12.25,3.9 11.24,3.03 10,3 L13,3 Z" fill="#ffffff"/>
</svg>