<?xml version="1.0" standalone="no"?><!DOCTYPE svg PUBLIC "-//W3C//DTD SVG 1.1//EN" "http://www.w3.org/Graphics/SVG/1.1/DTD/svg11.dtd"><svg t="1746592928865" class="icon" viewBox="0 0 1349 1024" version="1.1" xmlns="http://www.w3.org/2000/svg" p-id="6317" xmlns:xlink="http://www.w3.org/1999/xlink" width="52.6953125" height="40"><path d="M1.120974 304.76854a62.976049 62.976049 0 0 1 13.135005-51.64036 61.851477 61.851477 0 0 1 47.816814-22.491446h1225.333978a61.851477 61.851477 0 0 1 47.861797 22.491446 62.976049 62.976049 0 0 1 13.135004 51.64036l-126.446909 668.355809a62.21134 62.21134 0 0 1-60.951819 50.875651H188.834582a62.21134 62.21134 0 0 1-60.951818-50.830668z" fill="#C1D0FF" opacity=".8" p-id="6318"></path><path d="M151.093936 30.103001a30.723315 30.723315 0 0 1 31.488024-30.093555h265.174149a31.937853 31.937853 0 0 1 22.941275 9.581356l125.952097 130.045541a31.937853 31.937853 0 0 0 22.851309 9.581356h533.946929a30.723315 30.723315 0 0 1 31.488024 30.093555v422.839185a30.723315 30.723315 0 0 1-31.488024 30.093555H182.402029a30.723315 30.723315 0 0 1-31.488025-30.093555V30.103001z" fill="#5A8BFF" opacity=".8" p-id="6319"></path><path d="M1.165957 304.76854a62.976049 62.976049 0 0 1 13.135004-51.685343 61.851477 61.851477 0 0 1 47.861798-22.491446H1287.451754a61.851477 61.851477 0 0 1 47.861797 22.491446 62.976049 62.976049 0 0 1 13.135004 51.64036l-126.446909 668.355809a62.21134 62.21134 0 0 1-60.951819 50.875651H188.834582a62.21134 62.21134 0 0 1-60.951818-50.830668z" fill="#E8E8E8" fill-opacity="0.08" opacity=".8" p-id="6320"></path><path d="M1287.451754 261.719912a30.903247 30.903247 0 0 1 23.885915 11.335689 31.488024 31.488024 0 0 1 6.567503 25.82018l-126.177012 668.355809a31.083178 31.083178 0 0 1-30.453418 25.460317H188.834582a31.083178 31.083178 0 0 1-30.453418-25.415334L31.619375 298.695849a31.488024 31.488024 0 0 1 6.567502-25.865163 30.903247 30.903247 0 0 1 23.930899-11.335688h1225.333978z m-1225.333978-31.488024a61.851477 61.851477 0 0 0-47.861797 22.491446 62.976049 62.976049 0 0 0-13.135005 51.685343l126.76179 668.760655a62.21134 62.21134 0 0 0 60.951818 50.830668H1161.049827a62.21134 62.21134 0 0 0 60.951819-50.875651l126.446909-668.355809a62.976049 62.976049 0 0 0-13.135004-51.64036 61.851477 61.851477 0 0 0-47.816814-22.491446H62.162759z" fill="#FFFFFF" fill-opacity="0.6" opacity=".8" p-id="6321"></path><path d="M289.146432 512.049706a44.982892 44.982892 0 0 1 44.982892-44.982892h602.275941a45.162824 45.162824 0 1 1 0 90.325647H334.129324a44.982892 44.982892 0 0 1-44.982892-45.342755z" fill="#FFFFFF" opacity=".8" p-id="6322"></path><path d="M289.146432 761.030013a44.982892 44.982892 0 0 1 44.982892-44.982892h602.275941a45.162824 45.162824 0 1 1 0 90.325647H334.129324a44.982892 44.982892 0 0 1-44.982892-45.342755z" fill="#FFFFFF" opacity=".8" p-id="6323"></path></svg>